<svg xmlns="http://www.w3.org/2000/svg" viewBox="0 0 24 24" fill="#61DAFB">
  <path d="M12 10.11c1.03 0 1.87.84 1.87 1.89s-.84 1.89-1.87 1.89S10.13 13.04 10.13 12s.84-1.89 1.87-1.89M7.37 20c.63.38 2.01-.2 3.6-1.7-.52-.59-1.03-1.23-1.51-1.9a22.7 22.7 0 0 1-2.4-.36c-.51 2.14-.32 3.61.31 3.96m.71-5.74l-.29-.51c-.11.29-.22.58-.29.86.27.06.57.11.88.16l-.3-.51m6.54-.76l.81-1.5-.81-1.5c-.3-.53-.62-1-.91-1.47C13.17 9 12.6 9 12 9s-1.17 0-1.71.03c-.29.47-.61.94-.91 1.47L8.57 12l.81 1.5c.3.53.62 1 .91 1.47.54.03 1.11.03 1.71.03s1.17 0 1.71-.03c.29-.47.61-.94.91-1.47M12 6.78c-.19.22-.39.45-.59.72h1.18c-.2-.27-.4-.5-.59-.72m0 10.44c.19-.22.39-.45.59-.72h-1.18c.2.27.4.5.59.72M16.62 4c-.62-.38-2 .2-3.59 1.7.52.59 1.03 1.23 1.51 1.9.82.08 1.63.2 2.4.36.51-2.14.32-3.61-.32-3.96m-.7 5.74l.29.51c.11-.29.22-.58.29-.86-.27-.06-.57-.11-.88-.16l.3.51m1.45-7.05c1.47.84 1.63 3.05 1.01 5.63 2.54.75 4.37 1.99 4.37 3.68s-1.83 2.93-4.37 3.68c.62 2.58.46 4.79-1.01 5.63-1.46.84-3.45-.12-5.37-1.95-1.92 1.83-3.91 2.79-5.37 1.95-1.47-.84-1.63-3.05-1.01-5.63-2.54-.75-4.37-1.99-4.37-3.68s1.83-2.93 4.37-3.68c-.62-2.58-.46-4.79 1.01-5.63 1.46-.84 3.45.12 5.37 1.95 1.92-1.83 3.91-2.79 5.37-1.95z"/>
</svg>